<?xml version="1.0" encoding="UTF-8"?>
<svg width="700pt" height="700pt" version="1.1" viewBox="0 0 700 700" xmlns="http://www.w3.org/2000/svg">
 <path d="m326.54 56.086c-0.003907 0 0 0 0 0zm0 0-0.50781 1.2695c-12.547 31.156-27.281 61.867-48.551 88.09-12.16 15.598-25.508 31.41-30.262 51.07-5.6016 27.305 8.9531 56.809 33.02 70.312-7.8516-32.723 8.8047-61.887 8.8047-61.887-4.332 42.945 28.273 66.375 29.336 67.117 5.1641-1.2695 10.082-3.5977 14.375-6.9648 3.6055-3.8516 8.2266-8.0234 8.2734-13.738-2.4805-6.9219-9.2617-11.262-12.312-17.883-16.188-24.68-22.133-55.453-17.508-84.492 3.4961-28 12.711-55.051 14.43-83.328 0.33984-3.0703 0.59375-6.3906 0.91016-9.6094zm51.844 70.988v0.21094c1.0352 31.875 3.4844 64.469-4.875 95.668-6.8633 23.746-20.949 44.871-37.629 62.797-5.7539 5.9883-12.117 11.98-14.391 20.359-1.9883 5.5234-2.5938 13.059-0.95313 19.41 2.8242 14.457 13.109 26.582 25.762 33.461 1.8398 1.0586 3.7734 1.9062 5.6953 2.668 14.676-8.5312 65.957-42.629 58.051-98.949 0 0 31.852 39.875 20.477 86.227 19.879-15.621 33.051-39.832 33.91-65.23 0.38281-11.578-1.8828-23.156-6.8281-33.609-9.6133-21.844-27.078-38.711-41.492-57.336-16.055-19.641-29.43-41.652-37.754-65.676zm-141.48 115.05v8.3594c-0.86719 18.18-3.2461 36.742 1.2695 54.672 1.6914 7.0898 5.0117 14.605 10.406 20.066 6.4023 7.1758 15.66 11.641 25.336 12.445 8.6172 1.2695 17.062 0 24.906-4.0625 4.4922-2.1172 8.7891-4.8906 12.238-8.5312-14.984-5.5469-10.906-20.043-20.816-32.469-13.168-17.418-41.559-32.004-53.211-50.48zm283.05 115.27c-1.8203 0-3.6523 0.42188-5.4805 0.84766l-164.54 44.086-164.46-44.066c-14.625-3.9141-29.547 4.6992-33.465 19.324-3.918 14.625 4.6953 29.547 19.32 33.461l73.031 19.578-73.031 19.559c-14.625 3.9141-23.238 18.836-19.32 33.461 3.918 14.625 18.84 23.262 33.465 19.344l164.5-44.066 164.5 44.066c14.625 3.9141 29.562-4.6992 33.48-19.324 3.918-14.625-4.6953-29.547-19.32-33.461l-73.09-19.578 73.07-19.578c14.625-3.9141 23.258-18.859 19.34-33.484-3.4297-12.805-15.293-20.996-28-20.215z"/>
</svg>
