<?xml version="1.0" encoding="UTF-8"?>
<svg width="700pt" height="700pt" version="1.1" viewBox="0 0 700 700" xmlns="http://www.w3.org/2000/svg" xmlns:xlink="http://www.w3.org/1999/xlink">
 <defs>
  <symbol id="w" overflow="visible">
   <path d="m18.766-1.125c-0.96875 0.5-1.9805 0.875-3.0312 1.125-1.043 0.25781-2.1367 0.39062-3.2812 0.39062-3.3984 0-6.0898-0.94531-8.0781-2.8438-1.9922-1.9062-2.9844-4.4844-2.9844-7.7344 0-3.2578 0.99219-5.8359 2.9844-7.7344 1.9883-1.9062 4.6797-2.8594 8.0781-2.8594 1.1445 0 2.2383 0.13281 3.2812 0.39062 1.0508 0.25 2.0625 0.625 3.0312 1.125v4.2188c-0.98047-0.65625-1.9453-1.1406-2.8906-1.4531-0.94922-0.3125-1.9492-0.46875-3-0.46875-1.875 0-3.3516 0.60547-4.4219 1.8125-1.0742 1.1992-1.6094 2.8555-1.6094 4.9688 0 2.1055 0.53516 3.7617 1.6094 4.9688 1.0703 1.1992 2.5469 1.7969 4.4219 1.7969 1.0508 0 2.0508-0.14844 3-0.45312 0.94531-0.3125 1.9102-0.80078 2.8906-1.4688z"/>
  </symbol>
  <symbol id="c" overflow="visible">
   <path d="m13.734-11.141c-0.4375-0.19531-0.87109-0.34375-1.2969-0.4375-0.41797-0.10156-0.83984-0.15625-1.2656-0.15625-1.2617 0-2.2305 0.40625-2.9062 1.2188-0.67969 0.80469-1.0156 1.9531-1.0156 3.4531v7.0625h-4.8906v-15.312h4.8906v2.5156c0.625-1 1.3438-1.7266 2.1562-2.1875 0.82031-0.46875 1.8008-0.70312 2.9375-0.70312 0.16406 0 0.34375 0.011719 0.53125 0.03125 0.19531 0.011719 0.47656 0.039062 0.84375 0.078125z"/>
  </symbol>
  <symbol id="a" overflow="visible">
   <path d="m17.641-7.7031v1.4062h-11.453c0.125 1.1484 0.53906 2.0078 1.25 2.5781 0.70703 0.57422 1.7031 0.85938 2.9844 0.85938 1.0312 0 2.082-0.14844 3.1562-0.45312 1.082-0.3125 2.1914-0.77344 3.3281-1.3906v3.7656c-1.1562 0.4375-2.3125 0.76562-3.4688 0.98438-1.1562 0.22656-2.3125 0.34375-3.4688 0.34375-2.7734 0-4.9297-0.70312-6.4688-2.1094-1.5312-1.4062-2.2969-3.3789-2.2969-5.9219 0-2.5 0.75391-4.4609 2.2656-5.8906 1.5078-1.4375 3.582-2.1562 6.2188-2.1562 2.4062 0 4.332 0.73047 5.7812 2.1875 1.4453 1.4492 2.1719 3.3828 2.1719 5.7969zm-5.0312-1.625c0-0.92578-0.27344-1.6719-0.8125-2.2344-0.54297-0.57031-1.25-0.85938-2.125-0.85938-0.94922 0-1.7188 0.26562-2.3125 0.79688s-0.96484 1.2969-1.1094 2.2969z"/>
  </symbol>
  <symbol id="g" overflow="visible">
   <path d="m9.2188-6.8906c-1.0234 0-1.793 0.17188-2.3125 0.51562-0.51172 0.34375-0.76562 0.85547-0.76562 1.5312 0 0.625 0.20703 1.1172 0.625 1.4688 0.41406 0.34375 0.98828 0.51562 1.7188 0.51562 0.92578 0 1.7031-0.32812 2.3281-0.98438 0.63281-0.66406 0.95312-1.4922 0.95312-2.4844v-0.5625zm7.4688-1.8438v8.7344h-4.9219v-2.2656c-0.65625 0.92969-1.3984 1.6055-2.2188 2.0312-0.82422 0.41406-1.8242 0.625-3 0.625-1.5859 0-2.8711-0.45703-3.8594-1.375-0.99219-0.92578-1.4844-2.1289-1.4844-3.6094 0-1.7891 0.61328-3.1016 1.8438-3.9375 1.2383-0.84375 3.1797-1.2656 5.8281-1.2656h2.8906v-0.39062c0-0.76953-0.30859-1.332-0.92188-1.6875-0.61719-0.36328-1.5703-0.54688-2.8594-0.54688-1.0547 0-2.0312 0.10547-2.9375 0.3125-0.89844 0.21094-1.7305 0.52344-2.5 0.9375v-3.7344c1.0391-0.25 2.0859-0.44141 3.1406-0.57812 1.0625-0.13281 2.125-0.20312 3.1875-0.20312 2.7578 0 4.75 0.54688 5.9688 1.6406 1.2266 1.0859 1.8438 2.8555 1.8438 5.3125z"/>
  </symbol>
  <symbol id="b" overflow="visible">
   <path d="m7.7031-19.656v4.3438h5.0469v3.5h-5.0469v6.5c0 0.71094 0.14062 1.1875 0.42188 1.4375s0.83594 0.375 1.6719 0.375h2.5156v3.5h-4.1875c-1.9375 0-3.3125-0.39844-4.125-1.2031-0.80469-0.8125-1.2031-2.1797-1.2031-4.1094v-6.5h-2.4219v-3.5h2.4219v-4.3438z"/>
  </symbol>
  <symbol id="l" overflow="visible">
   <path d="m12.766-13.078v-8.2031h4.9219v21.281h-4.9219v-2.2188c-0.66797 0.90625-1.4062 1.5703-2.2188 1.9844s-1.7578 0.625-2.8281 0.625c-1.8867 0-3.4336-0.75-4.6406-2.25-1.2109-1.5-1.8125-3.4258-1.8125-5.7812 0-2.3633 0.60156-4.2969 1.8125-5.7969 1.207-1.5 2.7539-2.25 4.6406-2.25 1.0625 0 2 0.21484 2.8125 0.64062 0.82031 0.42969 1.5664 1.0859 2.2344 1.9688zm-3.2188 9.9219c1.0391 0 1.8359-0.37891 2.3906-1.1406 0.55078-0.76953 0.82812-1.8828 0.82812-3.3438 0-1.457-0.27734-2.5664-0.82812-3.3281-0.55469-0.76953-1.3516-1.1562-2.3906-1.1562-1.043 0-1.8398 0.38672-2.3906 1.1562-0.55469 0.76172-0.82812 1.8711-0.82812 3.3281 0 1.4609 0.27344 2.5742 0.82812 3.3438 0.55078 0.76172 1.3477 1.1406 2.3906 1.1406z"/>
  </symbol>
  <symbol id="k" overflow="visible">
   <path d="m10.5-3.1562c1.0508 0 1.8516-0.37891 2.4062-1.1406 0.55078-0.76953 0.82812-1.8828 0.82812-3.3438 0-1.457-0.27734-2.5664-0.82812-3.3281-0.55469-0.76953-1.3555-1.1562-2.4062-1.1562-1.0547 0-1.8594 0.38672-2.4219 1.1562-0.55469 0.77344-0.82812 1.8828-0.82812 3.3281 0 1.4492 0.27344 2.5586 0.82812 3.3281 0.5625 0.77344 1.3672 1.1562 2.4219 1.1562zm-3.25-9.9219c0.67578-0.88281 1.4219-1.5391 2.2344-1.9688 0.82031-0.42578 1.7656-0.64062 2.8281-0.64062 1.8945 0 3.4453 0.75 4.6562 2.25 1.207 1.5 1.8125 3.4336 1.8125 5.7969 0 2.3555-0.60547 4.2812-1.8125 5.7812-1.2109 1.5-2.7617 2.25-4.6562 2.25-1.0625 0-2.0078-0.21094-2.8281-0.625-0.8125-0.42578-1.5586-1.0859-2.2344-1.9844v2.2188h-4.8906v-21.281h4.8906z"/>
  </symbol>
  <symbol id="f" overflow="visible">
   <path d="m0.34375-15.312h4.8906l4.125 10.391 3.5-10.391h4.8906l-6.4375 16.766c-0.64844 1.6953-1.4023 2.8828-2.2656 3.5625-0.86719 0.6875-2 1.0312-3.4062 1.0312h-2.8438v-3.2188h1.5312c0.83203 0 1.4375-0.13672 1.8125-0.40625 0.38281-0.26172 0.67969-0.73047 0.89062-1.4062l0.14062-0.42188z"/>
  </symbol>
  <symbol id="j" overflow="visible">
   <path d="m14.953-3.7188h-8.2188l-1.3125 3.7188h-5.2812l7.5625-20.406h6.2656l7.5625 20.406h-5.2812zm-6.9062-3.7812h5.5781l-2.7812-8.125z"/>
  </symbol>
  <symbol id="i" overflow="visible">
   <path d="m2.3594-21.281h4.8906v21.281h-4.8906z"/>
  </symbol>
  <symbol id="h" overflow="visible">
   <path d="m2.3594-15.312h4.8906v15.312h-4.8906zm0-5.9688h4.8906v4h-4.8906z"/>
  </symbol>
  <symbol id="e" overflow="visible">
   <path d="m17.75-9.3281v9.3281h-4.9219v-7.1406c0-1.3203-0.03125-2.2344-0.09375-2.7344s-0.16797-0.86719-0.3125-1.1094c-0.1875-0.3125-0.44922-0.55469-0.78125-0.73438-0.32422-0.17578-0.69531-0.26562-1.1094-0.26562-1.0234 0-1.8242 0.39844-2.4062 1.1875-0.58594 0.78125-0.875 1.8711-0.875 3.2656v7.5312h-4.8906v-15.312h4.8906v2.2344c0.73828-0.88281 1.5195-1.5391 2.3438-1.9688 0.83203-0.42578 1.75-0.64062 2.75-0.64062 1.7695 0 3.1133 0.54688 4.0312 1.6406 0.91406 1.0859 1.375 2.6562 1.375 4.7188z"/>
  </symbol>
  <symbol id="v" overflow="visible">
   <path d="m11.891-16.969c-1.6055 0-2.8516 0.59375-3.7344 1.7812-0.875 1.1875-1.3125 2.8555-1.3125 5 0 2.1484 0.4375 3.8125 1.3125 5 0.88281 1.1797 2.1289 1.7656 3.7344 1.7656 1.6133 0 2.8633-0.58594 3.75-1.7656 0.88281-1.1875 1.3281-2.8516 1.3281-5 0-2.1445-0.44531-3.8125-1.3281-5-0.88672-1.1875-2.1367-1.7812-3.75-1.7812zm0-3.8125c3.2812 0 5.8477 0.9375 7.7031 2.8125 1.8633 1.875 2.7969 4.4688 2.7969 7.7812 0 3.3047-0.93359 5.8906-2.7969 7.7656-1.8555 1.875-4.4219 2.8125-7.7031 2.8125-3.2734 0-5.8398-0.9375-7.7031-2.8125-1.8672-1.875-2.7969-4.4609-2.7969-7.7656 0-3.3125 0.92969-5.9062 2.7969-7.7812 1.8633-1.875 4.4297-2.8125 7.7031-2.8125z"/>
  </symbol>
  <symbol id="u" overflow="visible">
   <path d="m2.3594-21.281h4.8906v11.594l5.625-5.625h5.6875l-7.4688 7.0312 8.0625 8.2812h-5.9375l-5.9688-6.3906v6.3906h-4.8906z"/>
  </symbol>
  <symbol id="t" overflow="visible">
   <path d="m12.422-21.281v3.2188h-2.7031c-0.6875 0-1.1719 0.125-1.4531 0.375-0.27344 0.25-0.40625 0.6875-0.40625 1.3125v1.0625h4.1875v3.5h-4.1875v11.812h-4.8906v-11.812h-2.4375v-3.5h2.4375v-1.0625c0-1.6641 0.46094-2.8984 1.3906-3.7031 0.92578-0.80078 2.3672-1.2031 4.3281-1.2031z"/>
  </symbol>
  <symbol id="d" overflow="visible">
   <path d="m9.6406-12.188c-1.0859 0-1.9141 0.39062-2.4844 1.1719-0.57422 0.78125-0.85938 1.9062-0.85938 3.375s0.28516 2.5938 0.85938 3.375c0.57031 0.77344 1.3984 1.1562 2.4844 1.1562 1.0625 0 1.875-0.38281 2.4375-1.1562 0.57031-0.78125 0.85938-1.9062 0.85938-3.375s-0.28906-2.5938-0.85938-3.375c-0.5625-0.78125-1.375-1.1719-2.4375-1.1719zm0-3.5c2.6328 0 4.6914 0.71484 6.1719 2.1406 1.4766 1.418 2.2188 3.3867 2.2188 5.9062 0 2.5117-0.74219 4.4805-2.2188 5.9062-1.4805 1.418-3.5391 2.125-6.1719 2.125-2.6484 0-4.7148-0.70703-6.2031-2.125-1.4922-1.4258-2.2344-3.3945-2.2344-5.9062 0-2.5195 0.74219-4.4883 2.2344-5.9062 1.4883-1.4258 3.5547-2.1406 6.2031-2.1406z"/>
  </symbol>
  <symbol id="s" overflow="visible">
   <path d="m16.547-12.766c0.61328-0.94531 1.3477-1.6719 2.2031-2.1719 0.85156-0.5 1.7891-0.75 2.8125-0.75 1.7578 0 3.0977 0.54688 4.0156 1.6406 0.92578 1.0859 1.3906 2.6562 1.3906 4.7188v9.3281h-4.9219v-7.9844-0.35938c0.007813-0.13281 0.015625-0.32031 0.015625-0.5625 0-1.082-0.16406-1.8633-0.48438-2.3438-0.3125-0.48828-0.82422-0.73438-1.5312-0.73438-0.92969 0-1.6484 0.38672-2.1562 1.1562-0.51172 0.76172-0.77344 1.8672-0.78125 3.3125v7.5156h-4.9219v-7.9844c0-1.6953-0.14844-2.7852-0.4375-3.2656-0.29297-0.48828-0.8125-0.73438-1.5625-0.73438-0.9375 0-1.6641 0.38672-2.1719 1.1562-0.51172 0.76172-0.76562 1.8594-0.76562 3.2969v7.5312h-4.9219v-15.312h4.9219v2.2344c0.60156-0.86328 1.2891-1.5156 2.0625-1.9531 0.78125-0.4375 1.6406-0.65625 2.5781-0.65625 1.0625 0 2 0.25781 2.8125 0.76562 0.8125 0.51172 1.4258 1.2305 1.8438 2.1562z"/>
  </symbol>
  <symbol id="r" overflow="visible">
   <path d="m17.75-9.3281v9.3281h-4.9219v-7.1094c0-1.3438-0.03125-2.2656-0.09375-2.7656s-0.16797-0.86719-0.3125-1.1094c-0.1875-0.3125-0.44922-0.55469-0.78125-0.73438-0.32422-0.17578-0.69531-0.26562-1.1094-0.26562-1.0234 0-1.8242 0.39844-2.4062 1.1875-0.58594 0.78125-0.875 1.8711-0.875 3.2656v7.5312h-4.8906v-21.281h4.8906v8.2031c0.73828-0.88281 1.5195-1.5391 2.3438-1.9688 0.83203-0.42578 1.75-0.64062 2.75-0.64062 1.7695 0 3.1133 0.54688 4.0312 1.6406 0.91406 1.0859 1.375 2.6562 1.375 4.7188z"/>
  </symbol>
  <symbol id="q" overflow="visible">
   <path d="m2.5781-20.406h5.875l7.4219 14v-14h4.9844v20.406h-5.875l-7.4219-14v14h-4.9844z"/>
  </symbol>
  <symbol id="p" overflow="visible">
   <path d="m2.1875-5.9688v-9.3438h4.9219v1.5312c0 0.83594-0.007813 1.875-0.015625 3.125-0.011719 1.25-0.015625 2.0859-0.015625 2.5 0 1.2422 0.03125 2.1328 0.09375 2.6719 0.070313 0.54297 0.17969 0.93359 0.32812 1.1719 0.20703 0.32422 0.47266 0.57422 0.79688 0.75 0.32031 0.16797 0.69141 0.25 1.1094 0.25 1.0195 0 1.8203-0.39062 2.4062-1.1719 0.58203-0.78125 0.875-1.8672 0.875-3.2656v-7.5625h4.8906v15.312h-4.8906v-2.2188c-0.74219 0.89844-1.5234 1.5586-2.3438 1.9844-0.82422 0.41406-1.7344 0.625-2.7344 0.625-1.7617 0-3.1055-0.53906-4.0312-1.625-0.92969-1.082-1.3906-2.6602-1.3906-4.7344z"/>
  </symbol>
  <symbol id="o" overflow="visible">
   <path d="m2.5781-20.406h8.7344c2.5938 0 4.582 0.57812 5.9688 1.7344 1.3945 1.1484 2.0938 2.7891 2.0938 4.9219 0 2.1367-0.69922 3.7812-2.0938 4.9375-1.3867 1.1562-3.375 1.7344-5.9688 1.7344h-3.4844v7.0781h-5.25zm5.25 3.8125v5.7031h2.9219c1.0195 0 1.8047-0.25 2.3594-0.75 0.5625-0.5 0.84375-1.2031 0.84375-2.1094 0-0.91406-0.28125-1.6172-0.84375-2.1094-0.55469-0.48828-1.3398-0.73438-2.3594-0.73438z"/>
  </symbol>
  <symbol id="n" overflow="visible">
   <path d="m2.3594-15.312h4.8906v15.031c0 2.0508-0.49609 3.6172-1.4844 4.7031-0.98047 1.082-2.4062 1.625-4.2812 1.625h-2.4219v-3.2188h0.85938c0.92578 0 1.5625-0.21094 1.9062-0.625 0.35156-0.41797 0.53125-1.2461 0.53125-2.4844zm0-5.9688h4.8906v4h-4.8906z"/>
  </symbol>
  <symbol id="m" overflow="visible">
   <path d="m14.719-14.828v3.9844c-0.65625-0.45703-1.3242-0.79688-2-1.0156-0.66797-0.21875-1.3594-0.32812-2.0781-0.32812-1.3672 0-2.4336 0.40234-3.2031 1.2031-0.76172 0.79297-1.1406 1.9062-1.1406 3.3438 0 1.4297 0.37891 2.543 1.1406 3.3438 0.76953 0.79297 1.8359 1.1875 3.2031 1.1875 0.75781 0 1.4844-0.10938 2.1719-0.32812 0.6875-0.22656 1.3203-0.56641 1.9062-1.0156v4c-0.76172 0.28125-1.5391 0.48828-2.3281 0.625-0.78125 0.14453-1.5742 0.21875-2.375 0.21875-2.7617 0-4.9219-0.70703-6.4844-2.125-1.5547-1.4141-2.3281-3.3828-2.3281-5.9062 0-2.5312 0.77344-4.5039 2.3281-5.9219 1.5625-1.4141 3.7227-2.125 6.4844-2.125 0.80078 0 1.5938 0.074219 2.375 0.21875 0.78125 0.13672 1.5547 0.35156 2.3281 0.64062z"/>
  </symbol>
 </defs>
 <g>
  <path d="m506.3 481.66c-0.027343-0.44922-0.089843-0.90625-0.21094-1.3906-2.2188-8.5898-2.4375-17.445-4.4023-26.023 4.6484-1.9258 5.1367-7.5195 2.625-11.219 0.96875-1.1875 1.5195-2.7031 1.2891-4.5625-6.6602-53.262-12.363-106.71-16.902-160.2-4.5469-53.609-9.9414-108.21-9.5312-162.04 0.0625-7.9258 0.83984-12-7.4258-14.812-5.5625-1.8945-11.598-1.793-17.297-3.0469-9.918-2.1797-20.055-3.2656-30.184-3.8203-0.65625-5.9414-1.2656-11.891-1.7539-17.852-1.0352-12.668-19.234-12.914-19.887 0-0.29297 5.7852-0.58984 11.602-0.77344 17.414-8.8438 0.074218-17.684 0.33984-26.531 0.59766-0.83984-7.043-1.7188-14.086-2.6719-21.117-1.3594-10.062-18.445-7.7266-17.793 2.4062 0.41406 6.3828 0.76172 12.77 1.0625 19.156-9.6367 0.15625-19.273 0.39844-28.914 0.71094-0.46875-6.4023-1.0039-12.797-1.6406-19.18-1.1406-11.48-18.492-12.012-18.312 0 0.10156 6.668 0.085937 13.34 0.003906 20.004-7.8242 0.35156-15.652 0.65625-23.469 1.1133-1.7852 0.10547-3.5664 0.26172-5.3555 0.375-0.54687-5.7617-1.1484-11.523-1.6289-17.293-1.0547-12.633-17.691-12.145-19.293 0-0.82813 6.2812-1.6914 12.582-2.2109 18.906-3.1797 0.24219-6.3633 0.41016-9.543 0.66797-6.4688 0.52734-12.98 0.12891-19.438 0.83984-5.9453 0.65625-11.988 3.668-17.629 5.5664-7.6328 2.5703-6.4453 11.641-6.4414 18.418 0 25.16 0.29688 50.34-0.12891 75.492-0.51562 30.289-1.1992 60.582-2.0039 90.867-1.5586 58.945-9.3242 119.67-5.7578 178.46 0.17188 2.8242 1.8828 4.9727 4.0664 6.3281 0.26172 1.457 0.95312 2.7656 2.0156 3.7305 0 0.29688 0.015625 0.59766 0.14062 0.94141 1.3438 3.6641 2.6445 7.207 4.4648 10.668 0.56641 1.0742 1.5898 1.2812 2.4883 0.98438 0.11328 0.011719 0.19141 0.0625 0.3125 0.054687 97.855-0.82422 196.1-13.688 293.56-2.9453 4.6367 0.51562 6.5547-4.6094 5.1016-8.2109zm-279.88 3.4414c-6.1562 0.39844-12.309 0.83594-18.465 1.1914-0.48828-1.5898-1.0195-3.1602-1.5859-4.7266 8.0586-0.64844 16.109-1.332 24.164-2.0039-1.5 1.7461-2.875 3.5898-4.1133 5.5391zm27.02-1.7539c-6.8203 0.45312-13.648 0.875-20.469 1.3281 1.9336-1.8945 3.8086-3.8398 5.6914-5.7891 6.6094-0.55469 13.215-1.0938 19.824-1.6445-1.8281 1.9336-3.5469 3.9453-5.0469 6.1055zm21-1.3555c-4.8086 0.33203-9.6211 0.60937-14.426 0.93359 2.2344-2.0273 4.375-4.1758 6.4922-6.3438 4.582-0.38672 9.1602-0.75781 13.738-1.1367-1.9922 2.1289-3.9219 4.3125-5.8047 6.5469zm15.863-37.992c-7.75 5.0352-14.875 10.832-21.875 16.824-4.4023 0.42188-8.7969 0.85156-13.199 1.2656 8.2109-7.8633 16.477-15.676 24.656-23.566 1.9609-1.8867-0.67188-5.5312-2.9844-3.8633-12.137 8.7578-23.391 18.453-34.316 28.645-3.4961 0.33203-6.9883 0.67578-10.484 1.0078 5.9883-5.7852 12.059-11.484 18.207-17.098 2.3867-2.1797-0.875-6.5898-3.5156-4.5586-9.2695 7.1055-17.988 14.828-26.492 22.793-2.2891 0.21094-4.5742 0.44141-6.8672 0.66016 5.5625-5.168 11.094-10.367 16.504-15.707 3.2539-3.207-1.5469-7.7891-4.9453-4.9375-4.4727 3.7578-8.875 7.5938-13.25 11.465 0.33984-2.8281 0.74609-5.6328 1.043-8.4727 8.3906-8.043 16.645-16.18 24.758-24.516 3.125-3.207-1.5586-7.7617-4.8711-4.8711-6.3555 5.5391-12.602 11.176-18.801 16.867 0.16406-2.0508 0.37891-4.082 0.52734-6.1367 0.16797-0.089843 0.33984-0.12891 0.5-0.26172 10.309-8.2773 20.914-16.309 31.668-24.008 2.2227-1.5898 0.25391-5.1953-2.1836-3.7422-10.316 6.1602-20.047 12.891-29.5 20.215 0.125-2.1406 0.26953-4.2773 0.375-6.4219 7.8789-6.875 15.973-13.5 23.695-20.559 1.9766-1.8047-0.58984-5.1406-2.8633-3.7109-7.2695 4.582-13.965 9.8828-20.48 15.438 0.11328-2.832 0.25391-5.668 0.33594-8.5078 2.168-1.9141 4.3516-3.8086 6.5508-5.6797 1.3047-1.1133-0.42578-3.3867-1.8477-2.3984-1.5859 1.1016-3.0625 2.3203-4.582 3.4883 0.09375-3.7305 0.22266-7.4609 0.28516-11.195 3.9258-2.8281 7.8359-5.6562 11.637-8.668 2.6758-2.1172-0.78906-6.5312-3.6406-4.7148-2.6875 1.7148-5.2695 3.5742-7.8867 5.3828 0.027344-2.6094 0.0625-5.2148 0.085937-7.8242 4.6484-4.2578 9.2461-8.5625 13.988-12.707 2.5312-2.2109-0.88672-6.7656-3.6406-4.7148-3.5117 2.6133-6.9102 5.332-10.305 8.0625 0.003906-2.1445 0.023438-4.2969 0.027344-6.4414 3.3711-3.5859 6.6992-7.2109 10.098-10.762 2.0156-2.1055-0.95703-4.8906-3.1289-3.1289-2.418 1.9492-4.6602 4.0273-6.9492 6.0586 0.003906-3.4258 0.003906-6.8672 0.011719-10.281 2.3398-2.2305 4.7773-4.3555 7.2812-6.3906 2.4961-2.0273-0.79688-6.3281-3.4609-4.4844-1.3438 0.92969-2.5352 2.0117-3.8086 3.0078 0.003907-1.3594 0-2.7344 0.003907-4.0938 4.8672-4.7812 9.8906-9.4062 14.812-14.129 2.1523-2.0625-0.65625-5.8398-3.2188-4.1719-4.1445 2.6953-7.918 5.707-11.543 8.9258 0.011719-1.4219 0.011719-2.8555 0.023438-4.2773 1.8828-1.7305 3.8086-3.4102 5.6562-5.1914 2.8008-2.7031-1.2773-6.4922-4.1758-4.1758-0.47656 0.37891-0.92578 0.78906-1.3984 1.1758 0.011719-0.55469 0.003906-1.1211 0.015625-1.6797v-0.26172c3.1914-3.207 6.4961-6.3008 9.9844-9.168 1.9766-1.625-0.62109-4.9961-2.7422-3.5547-2.5469 1.7266-4.8906 3.6445-7.1914 5.6172 0-0.33984 0.003906-0.68359 0.003906-1.0234 4.4531-3.4492 8.9375-6.8555 13.289-10.445 2.1094-1.7344-0.57812-4.7891-2.8047-3.6328-3.6445 1.8984-7.0781 4.0469-10.426 6.332 0.003906-1.8555 0.035156-3.7109 0.042969-5.5703 2.625-2.7227 5.3945-5.3047 8.1641-7.875 2.207-2.043-0.77344-6.1055-3.2812-4.25-1.6914 1.2539-3.2891 2.5859-4.8203 3.9883 0.003906-1.832 0.035156-3.6641 0.042968-5.4922 3.9492-3.1133 7.8281-6.2227 11.559-9.5977 2.918-2.6445-0.90234-7.6719-4.2344-5.4883-2.4766 1.6172-4.8711 3.3281-7.2461 5.0625 0-0.46484 0.011718-0.92578 0.011718-1.3906 2.7148-2.4453 5.4219-4.8906 7.9258-7.5664 2.0273-2.168-0.74609-6.3125-3.3359-4.3281-1.5742 1.2031-3.0703 2.4805-4.5625 3.7695 0-1.1875 0.011719-2.3789 0.011719-3.5664 3.7617-3.6719 7.5273-7.3359 11.262-11.055 1.8984-1.8945-0.58203-5.3125-2.9219-3.7852-2.9102 1.8984-5.6523 3.8906-8.3281 5.9688 0-1.2695 0.003906-2.543 0.003906-3.8125 1.9531-1.9805 3.8711-3.9922 5.6562-6.1758 1.3828-1.6914-0.46875-4.8711-2.5664-3.3281-1.0742 0.79688-2.0703 1.6562-3.0898 2.4922-0.003906-1.6875 0.003906-3.3711 0-5.0586 0.39062-0.11719 0.78906-0.32422 1.1641-0.70703 2.1992-2.2344 4.3945-4.4688 6.5977-6.7031 1.4727-1.4961-0.51953-4.3516-2.3242-3.0117-1.8125 1.3438-3.6289 2.6836-5.4414 4.0273-0.003907-1.4727 0-2.9414-0.003907-4.4062 2.0703-2.0273 4.207-3.9922 6.3047-6.0039 1.8555-1.7695-0.62891-5.1914-2.8047-3.6328-1.2305 0.88672-2.375 1.8828-3.5234 2.8711-0.015625-2.4883 0-4.9727-0.015625-7.4648 4.4062-3.1133 8.793-6.2383 13.027-9.5938 2.5742-2.0391-0.72656-6.0977-3.4609-4.4844-3.2656 1.9258-6.4414 3.9805-9.5938 6.0664-0.003906-0.76172 0-1.5234-0.003906-2.2891 3.875-2.9609 7.7773-5.8906 11.609-8.9141 2.2344-1.7656-0.62891-5.2266-2.9844-3.8633-2.957 1.7031-5.8281 3.5273-8.6562 5.4102-0.003907-0.72266 0-1.4453-0.011719-2.168 3.2461-2.8047 6.5078-5.5938 9.7539-8.3945 2.4922-2.1445-0.76172-6.3555-3.5156-4.5586-2.1719 1.418-4.25 2.9336-6.3047 4.4727-0.011719-1.1914-0.015625-2.3867-0.027344-3.5781 1.8711-1.7344 3.625-3.5234 5.3242-5.5391 1.3828-1.6406-0.34766-4.2773-2.3867-3.0898-1.0586 0.61719-2.0234 1.2773-3.0078 1.9219-0.015626-1.5234-0.027344-3.0469-0.042969-4.5703 1.8555-1.7344 3.7109-3.4727 5.5547-5.2188 1.4297-1.3555-0.47656-3.9609-2.1445-2.7812-1.2031 0.84375-2.3242 1.7539-3.4648 2.6367-0.003906-0.61719-0.011719-1.2305-0.023437-1.8555 2.2188-2.1914 4.4414-4.3867 6.4062-6.8047 1.5273-1.8867-0.35156-4.7383-2.6836-3.4766-1.3477 0.72656-2.582 1.6367-3.8125 2.5352-0.015625-1.0039-0.023438-2.0117-0.039062-3.0117 1.5391-1.4961 3.1016-2.9727 4.6094-4.5039 2.3633-2.3984-0.64453-6.2812-3.5781-4.6367-0.41406 0.23047-0.75 0.54297-1.1484 0.78906-0.023438-1.4492-0.035156-2.9023-0.0625-4.3516 0.18359 0 0.3125 0.078125 0.50391 0.0625 12.543-1.0039 25.016-1.7461 37.465-2.3633-0.26953 7.0352-0.28516 14.219 4.0039 20.008 4.6016 6.2109 13.805 7.3242 18.188 0 4.0273-6.7266 3.332-13.707 2.6992-21.062 9.1328-0.27344 18.25-0.42969 27.363-0.52734-0.40234 8.875-1.1602 16.27 4.7227 23.695 2.6055 3.293 8.9219 3.0625 11.555 0 6.1367-7.1445 5.5156-14.926 4.9844-23.766 9.5273 0.042969 19.047 0.22266 28.566 0.4375 0.19531 9.0117 0.015625 17 5.9375 24.375 3.2891 4.0977 9.6055 2.1523 12.059-1.5508 4.4062-6.6523 3.8359-14.469 2.8633-22.18 8.125 0.28516 16.27 0.73828 24.398 1.125 0.26172 9.9727 0.44922 19.141 7.1289 27.016 4.1055 4.832 12.746 3.2891 15.613-2.0117 4.1445-7.6445 3.2266-15.512 2.1055-23.715 12.105 0.72656 24.227 1.5078 36.398 2.4531-0.003907 0.0625-0.035157 0.09375-0.039063 0.15625-3.332 54.867 3.5859 111.64 8.4375 166.3 4.6406 52.246 11.16 104.16 19.105 156-45.887-0.23438-93.312 8.7031-138.8 13.188-9.3477 0.91797-18.691 1.8047-28.039 2.6953 0.15625-0.14453 0.32031-0.28516 0.46875-0.42969 2.4883-2.418-0.87891-7.125-3.8203-4.9453-2.7734 2.0547-5.4258 4.2656-8.082 6.4805-2.7656 0.26172-5.5391 0.53125-8.3047 0.79688 0.90625-0.92578 1.8438-1.8086 2.7227-2.7773 1.5625-1.7266-0.51562-4.8945-2.625-3.3984-3.1211 2.207-6.043 4.5859-8.9336 7.0273-4.6992 0.44922-9.3984 0.90625-14.094 1.3555 4.2461-3.7031 8.457-7.4375 12.504-11.355 2.1758-2.0977-0.66406-5.9375-3.2812-4.2422zm5.8008 36.504c-4.7812 0.33984-9.5664 0.65625-14.348 0.98438 2.2617-2.1836 4.4688-4.4258 6.6211-6.7266 4.4141-0.37109 8.832-0.72656 13.242-1.0977-1.8945 2.2422-3.7461 4.5156-5.5156 6.8398zm15.621-1.0938c-2.7773 0.20312-5.5547 0.37891-8.332 0.58203 1.9219-2.2578 3.7812-4.5703 5.5703-6.9336 2.6055-0.21875 5.207-0.42578 7.8125-0.64844-1.6133 2.3789-3.3008 4.7148-5.0508 7zm15.551-1.0977c-2.8945 0.21094-5.7891 0.40234-8.6875 0.61719 1.6367-2.3086 3.1992-4.6602 4.7031-7.0547 3.0898-0.26172 6.1836-0.50781 9.2695-0.76562-1.8477 2.3359-3.6055 4.7461-5.2852 7.2031zm23.727-1.7461c-0.003906 0.003906-0.003906 0.015625-0.003906 0.023438-5.332 0.41406-10.672 0.76172-16.004 1.1602 2-2.4023 3.9492-4.8555 5.8516-7.3359 4.8281-0.41016 9.6602-0.78906 14.492-1.2031-1.5039 2.4258-3.0156 4.8477-4.3359 7.3555zm27.453-2.0039c-6.2891 0.47656-12.641 0.91406-18.848 1.3984-0.80078 0.0625-1.6016 0.11328-2.4023 0.17187 1.6914-2.4531 3.375-4.9062 4.957-7.4492 6.3281-0.50391 12.668-0.99219 19.066-1.4062-1.0547 2.4062-2.0078 4.8242-2.7734 7.2852zm19.082-2.2656c-0.15234 0.29688-0.18359 0.57812-0.24609 0.86328-4.3867 0.28125-8.6797 0.64844-13.047 0.96875 1.4375-2.2969 2.75-4.7148 3.8516-7.2812 4.6094-0.29297 9.2109-0.58203 13.836-0.86719-1.6484 1.9648-3.1953 4.0117-4.3945 6.3164zm25.879-0.39453c-6.2422 0.16797-12.488 0.46484-18.723 0.8125 1.1719-2.3633 2.3398-4.7266 3.6797-7 0.027344-0.042969 0.023438-0.085938 0.042969-0.12891 6.5625-0.41406 13.133-0.84375 19.699-1.3398-1.6211 2.5078-3.1602 5.0859-4.6992 7.6562zm22.91-0.097656c-5.1641-0.125-10.336-0.035157-15.512 0.027343 1.2422-2.2773 2.4648-4.5703 3.5391-6.9336 0.19531-0.42969 0.28125-0.83984 0.29688-1.2305 6.0742-0.49219 12.152-0.98438 18.188-1.6172-2.25 3.1914-4.4336 6.4336-6.5117 9.7539zm19.246 0.16797c-0.12891 0.25781-0.13281 0.50391-0.20703 0.76172-3.7539-0.30859-7.5195-0.50781-11.297-0.68359 2.1562-3.5859 4.2773-7.1836 6.332-10.832 4.2344-0.50391 8.4609-1.0352 12.66-1.6445-2.8672 3.875-5.3203 8.043-7.4883 12.398zm8.1875 1.5c2.7383-5.1406 5.8672-10.035 9.1016-14.891 0.14453-0.21875 0.18359-0.44141 0.26953-0.66797 2.8281-0.48828 5.6719-0.91406 8.4766-1.4609-1.4453 6.3711-0.99219 13.105 0.074219 19.656-5.9336-1.1211-11.914-1.957-17.922-2.6367z"/>
  <path d="m424.43 184.35c-58.051-6.3672-119.82 4.0898-177.56 10.336-3.4609 0.375-3.5781 5.7891 0 5.5117 58.832-4.5859 119.1 0.17188 177.56-6.4023 6.0586-0.67578 6.0859-8.7812 0-9.4453z"/>
  <path d="m438.19 263.24c6.7422-0.28125 6.6875-10.008 0-10.434-61.551-3.9492-124.27 1.8477-185.49 8.3281-5.9531 0.62891-6.1055 9.9727 0 9.4531 61.863-5.3125 123.56-4.7539 185.49-7.3477z"/>
  <path d="m428.38 315.95c-57.344-0.57031-114.94 4.6914-172.18 7.8281-4.7773 0.26172-4.832 7.6719 0 7.4805 57.293-2.2695 115.13-2.4688 172.18-8.4219 4.3125-0.44531 4.5312-6.8398 0-6.8867z"/>
  <path d="m435.39 382.95c-52.68-5.6992-108.44 0.63672-161.01 5.4805-5.7344 0.52734-5.8477 9.5078 0 9.0547 53.547-4.1289 107.66-1.8477 161.01-6.6641 5.0938-0.44922 5.0273-7.3203 0-7.8711z"/>

 </g>
</svg>
