<?xml version="1.0" encoding="UTF-8"?>
<svg width="700pt" height="700pt" version="1.1" viewBox="0 0 700 700" xmlns="http://www.w3.org/2000/svg">
 <g>
  <path d="m317.11 153.97c0-11.246-6-21.637-15.738-27.262-9.7383-5.6211-21.734-5.6211-31.473 0-9.7383 5.625-15.738 16.016-15.738 27.262 0 11.242 6 21.633 15.738 27.258 9.7383 5.6211 21.734 5.6211 31.473 0 9.7383-5.625 15.738-16.016 15.738-27.258z"/>
  <path d="m110.77 260.68c-1.6641-0.89453-3.7305-0.47266-4.9062 1.0039-1.1797 1.4766-1.1367 3.5859 0.10547 5.0117 33.586 38.508 78.449 65.453 128.22 77.008l52.383-46.883h-32.746c-49.945 0-99.105-12.418-143.05-36.137z"/>
  <path d="m323.34 188.34 109.93 42.312c1.3242 0.50781 2.3203 1.6289 2.6719 3 0.34766 1.375 0.011719 2.832-0.90234 3.9141l-42.055 49.574v-0.003907c-1.5 1.7695-4.1172 2.0625-5.9688 0.66797l-63.898-48.043c-1.9336-1.4297-4.6562-1.0352-6.1016 0.88672-1.4453 1.9219-1.0664 4.6484 0.84375 6.1094l13.395 10.07-34.309 30.707-19.43-54.492-0.003906-0.003906c-3.0312-8.5117-2.6797-17.859 0.98438-26.117 3.6641-8.2578 10.363-14.793 18.711-18.25 8.3477-3.457 17.703-3.5781 26.133-0.33203z"/>
  <path d="m430.3 179.92c3.8672-3.4609 9.7656-3.2969 13.438 0.36719 3.6758 3.668 3.8477 9.5625 0.39844 13.441l-21.055 23.621-24.195-9.3125z"/>
  <path d="m188.27 402.74c-0.84766-0.85156-1.3086-2.0195-1.2695-3.2188 0.039062-1.2031 0.57031-2.3398 1.4688-3.1367l149.95-134.2 26.785 20.141-137 153.71v-0.003906c-0.80078 0.90234-1.9336 1.4336-3.1367 1.4688-1.2031 0.039062-2.3672-0.42188-3.2227-1.2695z"/>
  <path d="m589.23 260.68c-43.953 23.719-93.109 36.137-143.05 36.137h-82.203l-47.398 53.184h94.27-0.003906c34.715 0 69.027-7.4336 100.62-21.805s59.754-35.34 82.57-61.504c1.2422-1.4219 1.2852-3.5312 0.10547-5.0078-1.1758-1.4766-3.2422-1.8984-4.9062-1.0039z"/>
 </g>
</svg>
