<?xml version="1.0" encoding="UTF-8"?>
<svg width="700pt" height="700pt" version="1.1" viewBox="0 0 700 700" xmlns="http://www.w3.org/2000/svg">
 <g>
  <path d="m460.37 434.07c-11.566 0.92578-24.832 1.6797-39.863 2.2383l11.672 18.691h-164.36l11.691-18.691c-15.031-0.55859-28.297-1.3125-39.863-2.2383l-61.988 99.156c-5.1289 8.207-2.625 19.004 5.5469 24.113 2.9062 1.8008 6.1094 2.6602 9.2773 2.6602 5.8281 0 11.531-2.9062 14.859-8.2266l5.7891-9.2734h273.75l5.793 9.2734c3.3086 5.3203 9.0312 8.2266 14.859 8.2266 3.168 0 6.3711-0.85938 9.2578-2.6602 8.1914-5.1094 10.676-15.906 5.5469-24.113zm-225.36 73.43 10.938-17.5h208.13l10.938 17.5z"/>
  <path d="m525 17.5c-17.5-17.5-78.363-17.5-175-17.5s-157.5 0-175 17.5-17.5 86.188-17.5 192.5c0 85.156 0.015625 146.11 9.0312 176 2.2383 7.4219 4.9844 13.02 8.4688 16.504 1.8203 1.8203 4.1641 3.3789 6.8945 4.8125 23.625 12.652 81.41 12.688 168.11 12.688s144.48-0.035156 168.11-12.688c2.7305-1.4336 5.0938-2.9922 6.8945-4.8125 3.4844-3.4844 6.2305-9.082 8.4688-16.504 9.0156-29.887 9.0312-90.84 9.0312-176 0-106.31 0-175-17.5-192.5zm-271.25 332.5c-24.168 0-43.75-19.582-43.75-43.75s19.582-43.75 43.75-43.75 43.75 19.582 43.75 43.75-19.582 43.75-43.75 43.75zm192.5 0c-24.168 0-43.75-19.582-43.75-43.75s19.582-43.75 43.75-43.75 43.75 19.582 43.75 43.75-19.582 43.75-43.75 43.75zm43.75-140c-17.5 17.5-62.684 17.5-140 17.5s-122.5 0-140-17.5-17.5-35.262-17.5-78.75 0-61.25 17.5-78.75 62.684-17.5 140-17.5 122.5 0 140 17.5 17.5 35.262 17.5 78.75 0 61.25-17.5 78.75z"/>
  <path d="m472.5 306.25c0 14.496-11.754 26.25-26.25 26.25s-26.25-11.754-26.25-26.25 11.754-26.25 26.25-26.25 26.25 11.754 26.25 26.25"/>
  <path d="m280 306.25c0 14.496-11.754 26.25-26.25 26.25s-26.25-11.754-26.25-26.25 11.754-26.25 26.25-26.25 26.25 11.754 26.25 26.25"/>
 </g>
</svg>
